<svg width="36" height="36" viewBox="0 0 36 36" fill="none" xmlns="http://www.w3.org/2000/svg">
<path fill-rule="evenodd" clip-rule="evenodd" d="M6.50301 10.8854C6.52842 12.1712 5.82878 13.9093 4.91907 14.8173C4.07493 15.6623 3.60077 16.8078 3.60077 18.0022C3.60077 19.1965 4.07493 20.342 4.91907 21.187C5.81692 22.0814 6.4776 23.6332 6.50301 24.9004C6.52673 26.0218 6.96549 27.1365 7.82099 27.9903C8.61027 28.7812 9.66613 29.2493 10.7822 29.3032C12.1222 29.371 13.8772 30.1502 14.8259 31.0989C15.6708 31.9425 16.8159 32.4164 18.0099 32.4164C19.2038 32.4164 20.349 31.9425 21.1939 31.0989C22.1425 30.1502 23.8976 29.371 25.2376 29.3032C26.3536 29.2493 27.4095 28.7812 28.1988 27.9903C29.0216 27.1686 29.4935 26.0596 29.5151 24.897C29.5405 23.6332 30.1927 22.0916 31.0888 21.1971C31.9362 20.3525 32.4133 19.2058 32.4152 18.0093C32.4171 16.8129 31.9437 15.6647 31.099 14.8173C30.191 13.911 29.4897 12.1712 29.5168 10.8871C29.5295 10.2808 29.4193 9.67827 29.1928 9.11576C28.9663 8.55324 28.6281 8.04245 28.1988 7.61421C27.7538 7.16806 27.2199 6.82059 26.6318 6.59439C26.0437 6.36819 25.4145 6.26833 24.7853 6.30131C23.5757 6.3623 22.0494 5.77616 21.1939 4.91896C20.3489 4.07483 19.2034 3.60066 18.009 3.60066C16.8147 3.60066 15.6692 4.07483 14.8242 4.91896C13.9704 5.77446 12.4424 6.3623 11.2328 6.30131C10.6038 6.26857 9.97502 6.36855 9.38721 6.59474C8.7994 6.82093 8.26577 7.16828 7.82099 7.61421C7.39185 8.04225 7.05383 8.55277 6.82732 9.11497C6.6008 9.67718 6.49048 10.2794 6.50301 10.8854ZM23.1522 12.2847C23.3468 12.3927 23.5182 12.5379 23.6566 12.7122C23.795 12.8864 23.8978 13.0862 23.959 13.3002C24.0202 13.5141 24.0386 13.738 24.0133 13.9591C23.9879 14.1802 23.9192 14.3941 23.8112 14.5886L19.122 23.0284C19.0006 23.2583 18.8278 23.4571 18.6172 23.6095C18.3111 23.8309 17.9398 23.9437 17.5622 23.9299C17.1847 23.9161 16.8226 23.7765 16.5335 23.5333L11.8596 19.7945C11.6859 19.6554 11.5412 19.4835 11.4339 19.2886C11.3266 19.0936 11.2587 18.8795 11.2342 18.6583C11.2096 18.4371 11.2289 18.2133 11.2909 17.9995C11.3528 17.7858 11.4563 17.5864 11.5953 17.4126C11.7344 17.2389 11.9063 17.0942 12.1012 16.9869C12.2962 16.8796 12.5104 16.8117 12.7315 16.7872C12.9527 16.7627 13.1765 16.7819 13.3903 16.8439C13.604 16.9059 13.8034 17.0093 13.9772 17.1484L17.1163 19.6606L20.8483 12.942C20.9564 12.7476 21.1017 12.5763 21.276 12.4381C21.4503 12.2998 21.6502 12.1972 21.8641 12.1362C22.078 12.0751 22.3019 12.0569 22.5229 12.0823C22.7439 12.1078 22.9578 12.1766 23.1522 12.2847Z" fill="#35B17D"/>
</svg>
