<svg width="36" height="36" viewBox="0 0 36 36" fill="none" xmlns="http://www.w3.org/2000/svg">
<path d="M2.64331 7.30112L4.42394 5.53441L29.0745 30.1849L27.3077 31.9656L22.3693 27.0132L19.9627 29.2251L17.9456 31.0613L15.9284 29.2251C8.76421 22.7286 4.03442 18.43 4.03442 13.1855C4.03442 11.864 4.35438 10.6398 4.91083 9.56864L2.64331 7.30112ZM11.6855 5.53441C14.1061 5.53441 16.4292 6.66121 17.9456 8.42792C19.4619 6.66121 21.785 5.53441 24.2056 5.53441C28.4902 5.53441 31.8567 8.88699 31.8567 13.1855C31.8567 16.7607 29.6587 19.8907 26.0001 23.5771L8.58336 6.16041C9.52932 5.75699 10.5727 5.53441 11.6855 5.53441Z" fill="white"/>
</svg>
