<svg width="24" height="24" viewBox="0 0 24 24" fill="none" xmlns="http://www.w3.org/2000/svg">
<path fill-rule="evenodd" clip-rule="evenodd" d="M18.447 4.10596C18.684 4.22461 18.8643 4.4325 18.9481 4.68395C19.0319 4.9354 19.0125 5.20984 18.894 5.44696L17.72 7.79696C19.042 8.71782 20.1217 9.94474 20.8669 11.3731C21.6122 12.8015 22.0009 14.3889 22 16V17C22 17.5304 21.7893 18.0391 21.4142 18.4142C21.0392 18.7892 20.5305 19 20 19H4.00003C3.4696 19 2.96089 18.7892 2.58582 18.4142C2.21075 18.0391 2.00003 17.5304 2.00003 17V16C1.99896 14.3887 2.38763 12.8011 3.13289 11.3725C3.87816 9.94399 4.95791 8.71691 6.28003 7.79596L5.10603 5.44696C5.04247 5.32908 5.00323 5.19964 4.99064 5.06631C4.97805 4.93298 4.99237 4.79848 5.03276 4.67079C5.07314 4.5431 5.13876 4.42482 5.22572 4.32298C5.31268 4.22113 5.41921 4.13779 5.539 4.07789C5.65878 4.018 5.78938 3.98278 5.92303 3.97432C6.05669 3.96586 6.19068 3.98433 6.31706 4.02864C6.44344 4.07295 6.55964 4.14219 6.65875 4.23226C6.75786 4.32232 6.83787 4.43138 6.89403 4.55296L8.02803 6.81996C9.28212 6.27819 10.6339 5.99912 12 5.99996C13.411 5.99996 14.755 6.29196 15.972 6.81996L17.106 4.55296C17.2247 4.31595 17.4326 4.13573 17.684 4.05192C17.9355 3.9681 18.2099 3.98754 18.447 4.10596ZM7.50003 12C7.10221 12 6.72068 12.158 6.43937 12.4393C6.15807 12.7206 6.00003 13.1021 6.00003 13.5C6.00003 13.8978 6.15807 14.2793 6.43937 14.5606C6.72068 14.8419 7.10221 15 7.50003 15C7.89786 15 8.27939 14.8419 8.56069 14.5606C8.842 14.2793 9.00003 13.8978 9.00003 13.5C9.00003 13.1021 8.842 12.7206 8.56069 12.4393C8.27939 12.158 7.89786 12 7.50003 12ZM16.5 12C16.1022 12 15.7207 12.158 15.4394 12.4393C15.1581 12.7206 15 13.1021 15 13.5C15 13.8978 15.1581 14.2793 15.4394 14.5606C15.7207 14.8419 16.1022 15 16.5 15C16.8979 15 17.2794 14.8419 17.5607 14.5606C17.842 14.2793 18 13.8978 18 13.5C18 13.1021 17.842 12.7206 17.5607 12.4393C17.2794 12.158 16.8979 12 16.5 12Z" fill="#3F3EA3"/>
</svg>
