<svg width="40" height="40" viewBox="0 0 40 40" fill="none" xmlns="http://www.w3.org/2000/svg">
<g clip-path="url(#clip0_31_1377)">
<path d="M4.82898 0H20V20H0V4.82898C0 2.16203 2.16203 0 4.82898 0Z" fill="#D3D2FF"/>
<path d="M12.2458 5.92996C11.438 5.92996 10.6447 6.19667 10 6.68164L8.68762 10.1955L10 14.0701H14.7771V5.92996H12.2458Z" fill="#8584FF"/>
<path d="M7.75428 5.92996H5.22302V14.0701H10.0001V6.68164C9.35536 6.19667 8.56208 5.92996 7.75428 5.92996Z" fill="#A7A6FF"/>
<path d="M20 0H35.171C37.838 0 40 2.16203 40 4.82898V20H20V0Z" fill="#FFD4BB"/>
<path d="M29.9724 5.23169L29.0481 9.81974L29.9724 14.8409C32.6217 14.8409 34.777 12.6855 34.777 10.0363C34.777 9.04277 34.474 8.11877 33.9554 7.35183L33.0115 6.31753C32.1829 5.63916 31.1244 5.23169 29.9724 5.23169Z" fill="#FF7321"/>
<path d="M25.1678 10.0363C25.1678 11.0302 25.4712 11.9548 25.9903 12.722L26.918 13.7424C27.7488 14.4283 28.8133 14.8409 29.9723 14.8409V5.23169C28.8204 5.23169 27.7619 5.63916 26.9333 6.31757L25.9903 7.3506C25.4712 8.11779 25.1678 9.04226 25.1678 10.0363Z" fill="#FF9A5F"/>
<path d="M33.9545 12.7219C33.3364 11.9646 32.9979 11.0208 32.9979 10.0362C32.9979 9.05169 33.3364 8.10787 33.9545 7.35054C33.6917 6.96247 33.374 6.61457 33.0113 6.31769C32.1076 7.34693 31.6114 8.66208 31.6114 10.0362C31.6114 11.4104 32.1076 12.7256 33.0113 13.7548C33.374 13.4579 33.6917 13.11 33.9545 12.7219ZM25.9904 7.35059C26.6085 8.10787 26.9469 9.05169 26.9469 10.0362C26.9469 11.0208 26.6084 11.9646 25.9904 12.7219C26.2531 13.11 26.5708 13.4579 26.9335 13.7548C27.8373 12.7256 28.3334 11.4105 28.3334 10.0362C28.3334 8.66204 27.8373 7.34689 26.9335 6.31769C26.5708 6.61458 26.2531 6.9625 25.9904 7.35059Z" fill="#FFC09C"/>
<path d="M0 20H20V40H4.82898C2.16203 40 0 37.838 0 35.171V20Z" fill="#FFD4BB"/>
<path d="M11.7643 26.584C11.5503 26.4065 11.1234 26.0524 11.0573 25.8969H9.61664V31.7248H11.0483V27.851C11.6816 28.3848 12.2768 28.9679 12.2768 29.9188H13.7084C13.7084 28.1966 12.5848 27.2646 11.7643 26.584Z" fill="#FF7321"/>
<path d="M11.0483 31.7248C11.0483 30.4134 9.9813 29.3464 8.66988 29.3464L7.71545 31.9921L8.66988 34.1032C9.9813 34.1032 11.0483 33.0362 11.0483 31.7248Z" fill="#FF9A5F"/>
<path d="M8.66988 29.3464C7.35845 29.3464 6.2915 30.4133 6.2915 31.7248C6.2915 33.0362 7.35841 34.1031 8.66988 34.1031V29.3464Z" fill="#FF7321"/>
<path d="M20 20H40V35.171C40 37.838 37.838 40 35.171 40H20V20Z" fill="#D3D2FF"/>
<path d="M34.777 28.5529C34.777 29.2437 34.5439 29.8931 34.1063 30.3609C33.2649 31.2606 30 34.2191 30 34.2191L29.3573 29.5614L30 26.6401C30.5047 26.1111 31.2161 25.781 32.005 25.781C33.536 25.781 34.777 27.022 34.777 28.5529Z" fill="#A7A6FF"/>
<path d="M27.995 25.781C26.464 25.781 25.223 27.022 25.223 28.5529C25.223 29.2438 25.4562 29.8931 25.8937 30.3609C26.7351 31.2606 30.0001 34.2191 30.0001 34.2191V26.6401C29.4953 26.1111 28.7839 25.781 27.995 25.781Z" fill="#8584FF"/>
</g>
<defs>
<clipPath id="clip0_31_1377">
<rect width="40" height="40" fill="white"/>
</clipPath>
</defs>
</svg>
